<mxfile host="app.diagrams.net" modified="2021-03-21T07:48:45.414Z" agent="5.0 (X11)" etag="r0DiJHQXrYg_LHD5XKvg" version="14.4.9" type="github">
  <diagram id="PkKeY5RilfShJjIIVHlE" name="Page-1">
    <mxGraphModel dx="1350" dy="804" grid="1" gridSize="10" guides="1" tooltips="1" connect="1" arrows="1" fold="1" page="1" pageScale="1" pageWidth="827" pageHeight="1169" math="0" shadow="0">
      <root>
        <mxCell id="0" />
        <mxCell id="1" parent="0" />
        <mxCell id="WTyLmvjnWqMjKbYEzsTN-1" value="测距传感器" style="rounded=0;whiteSpace=wrap;html=1;" parent="1" vertex="1">
          <mxGeometry x="30" y="120" width="120" height="60" as="geometry" />
        </mxCell>
        <mxCell id="WTyLmvjnWqMjKbYEzsTN-2" value="步进电机" style="rounded=0;whiteSpace=wrap;html=1;sketch=0;" parent="1" vertex="1">
          <mxGeometry x="30" y="240" width="120" height="60" as="geometry" />
        </mxCell>
        <mxCell id="WTyLmvjnWqMjKbYEzsTN-3" value="FPGA" style="rounded=0;whiteSpace=wrap;html=1;sketch=0;" parent="1" vertex="1">
          <mxGeometry x="200" y="110" width="320" height="300" as="geometry" />
        </mxCell>
        <mxCell id="WTyLmvjnWqMjKbYEzsTN-4" value="上位机" style="rounded=0;whiteSpace=wrap;html=1;sketch=0;" parent="1" vertex="1">
          <mxGeometry x="600" y="140" width="180" height="220" as="geometry" />
        </mxCell>
        <mxCell id="WTyLmvjnWqMjKbYEzsTN-6" value="" style="endArrow=classic;html=1;entryX=1;entryY=0.5;entryDx=0;entryDy=0;exitX=-0.009;exitY=0.537;exitDx=0;exitDy=0;exitPerimeter=0;" parent="1" source="WTyLmvjnWqMjKbYEzsTN-3" target="WTyLmvjnWqMjKbYEzsTN-2" edge="1">
          <mxGeometry width="50" height="50" relative="1" as="geometry">
            <mxPoint x="180" y="270" as="sourcePoint" />
            <mxPoint x="270" y="270" as="targetPoint" />
          </mxGeometry>
        </mxCell>
        <mxCell id="WTyLmvjnWqMjKbYEzsTN-7" value="数码管" style="rounded=0;whiteSpace=wrap;html=1;sketch=0;" parent="1" vertex="1">
          <mxGeometry x="30" y="340" width="120" height="60" as="geometry" />
        </mxCell>
        <mxCell id="WTyLmvjnWqMjKbYEzsTN-11" value="" style="endArrow=classic;html=1;entryX=1;entryY=0.5;entryDx=0;entryDy=0;exitX=-0.003;exitY=0.863;exitDx=0;exitDy=0;exitPerimeter=0;" parent="1" source="WTyLmvjnWqMjKbYEzsTN-3" target="WTyLmvjnWqMjKbYEzsTN-7" edge="1">
          <mxGeometry width="50" height="50" relative="1" as="geometry">
            <mxPoint x="180" y="370" as="sourcePoint" />
            <mxPoint x="260" y="350" as="targetPoint" />
          </mxGeometry>
        </mxCell>
        <mxCell id="WTyLmvjnWqMjKbYEzsTN-15" value="" style="endArrow=classic;html=1;" parent="1" edge="1">
          <mxGeometry width="50" height="50" relative="1" as="geometry">
            <mxPoint x="594" y="294" as="sourcePoint" />
            <mxPoint x="520" y="294" as="targetPoint" />
          </mxGeometry>
        </mxCell>
        <mxCell id="l1fs5ziQuPOiMHA6lOia-1" value="UART模块" style="rounded=0;whiteSpace=wrap;html=1;sketch=0;" parent="1" vertex="1">
          <mxGeometry x="450" y="200" width="60" height="70" as="geometry" />
        </mxCell>
        <mxCell id="l1fs5ziQuPOiMHA6lOia-3" value="UART模块" style="whiteSpace=wrap;html=1;rounded=0;sketch=0;" parent="1" vertex="1">
          <mxGeometry x="610" y="220" width="50" height="60" as="geometry" />
        </mxCell>
        <mxCell id="l1fs5ziQuPOiMHA6lOia-7" value="顶层控制模块" style="whiteSpace=wrap;html=1;rounded=0;sketch=0;" parent="1" vertex="1">
          <mxGeometry x="210" y="160" width="120" height="240" as="geometry" />
        </mxCell>
        <mxCell id="l1fs5ziQuPOiMHA6lOia-9" value="" style="endArrow=classic;html=1;exitX=1;exitY=0.5;exitDx=0;exitDy=0;entryX=-0.006;entryY=0.137;entryDx=0;entryDy=0;entryPerimeter=0;" parent="1" source="WTyLmvjnWqMjKbYEzsTN-1" target="WTyLmvjnWqMjKbYEzsTN-3" edge="1">
          <mxGeometry width="50" height="50" relative="1" as="geometry">
            <mxPoint x="390" y="380" as="sourcePoint" />
            <mxPoint x="440" y="330" as="targetPoint" />
          </mxGeometry>
        </mxCell>
        <mxCell id="l1fs5ziQuPOiMHA6lOia-5" value="数码管控制模块" style="whiteSpace=wrap;html=1;rounded=0;sketch=0;" parent="1" vertex="1">
          <mxGeometry x="230" y="330" width="60" height="65" as="geometry" />
        </mxCell>
        <mxCell id="l1fs5ziQuPOiMHA6lOia-4" value="PWM模块" style="whiteSpace=wrap;html=1;rounded=0;sketch=0;" parent="1" vertex="1">
          <mxGeometry x="235" y="190" width="70" height="60" as="geometry" />
        </mxCell>
        <mxCell id="l1fs5ziQuPOiMHA6lOia-10" value="" style="endArrow=classic;html=1;exitX=1;exitY=0.333;exitDx=0;exitDy=0;exitPerimeter=0;entryX=-0.022;entryY=0.314;entryDx=0;entryDy=0;entryPerimeter=0;" parent="1" source="WTyLmvjnWqMjKbYEzsTN-3" target="WTyLmvjnWqMjKbYEzsTN-4" edge="1">
          <mxGeometry width="50" height="50" relative="1" as="geometry">
            <mxPoint x="540" y="250" as="sourcePoint" />
            <mxPoint x="590" y="200" as="targetPoint" />
          </mxGeometry>
        </mxCell>
        <mxCell id="l1fs5ziQuPOiMHA6lOia-11" value="数据库" style="rounded=0;whiteSpace=wrap;html=1;sketch=0;" parent="1" vertex="1">
          <mxGeometry x="720" y="160" width="50" height="70" as="geometry" />
        </mxCell>
        <mxCell id="gIbrRa1x9xztvAzy5hts-1" value="数据库调用" style="whiteSpace=wrap;html=1;" vertex="1" parent="1">
          <mxGeometry x="700" y="290" width="70" height="60" as="geometry" />
        </mxCell>
      </root>
    </mxGraphModel>
  </diagram>
</mxfile>
